# xmcd
#
# Track frame offsets: 
#        150
#        16764
#        31421
#        50817
#        67041
#        79613
#        94246
#        107941
#        128432
#        147057
#        162235
#        174136
#
# Disc length: 2543 seconds
#
# Revision: 0
# Processed by: cddbd v1.5.2PL0 Copyright (c) Steve Scherf et al.
# Submitted via: ExactAudioCopy v1.3
#
DISCID=9409ed0c
DTITLE=Marcia Ball - Shine Bright
DYEAR=2018
DGENRE=Blues
TTITLE0=Shine Bright
TTITLE1=I Got To Find Somebody
TTITLE2=They Don't Make 'Em Like That
TTITLE3=Life Of The Party
TTITLE4=What Would I Do Without You
TTITLE5=When The Mardi Gras Is Over
TTITLE6=Once In A Lifetime Thing
TTITLE7=Pots And Pans
TTITLE8=World Full Of Love
TTITLE9=I'm Glad I Did What I Did
TTITLE10=Too Much For Me
TTITLE11=Take A Little Louisiana
EXTD=
EXTT0=
EXTT1=
EXTT2=
EXTT3=
EXTT4=
EXTT5=
EXTT6=
EXTT7=
EXTT8=
EXTT9=
EXTT10=
EXTT11=
PLAYORDER=
